<svg width="72" height="72" viewBox="0 0 72 72" fill="none" xmlns="http://www.w3.org/2000/svg">
<mask id="path-1-inside-1_1_12" fill="white">
<path d="M53.6777 18.3223C50.1813 14.826 45.7268 12.445 40.8772 11.4804C36.0277 10.5157 31.0011 11.0108 26.4329 12.903C21.8648 14.7952 17.9603 17.9995 15.2133 22.1107C12.4662 26.222 11 31.0555 11 36C11 40.9445 12.4662 45.778 15.2133 49.8893C17.9603 54.0005 21.8648 57.2048 26.4329 59.097C31.0011 60.9892 36.0277 61.4843 40.8772 60.5196C45.7268 59.555 50.1813 57.174 53.6777 53.6777L49.4065 49.4065C46.7549 52.058 43.3766 53.8638 39.6988 54.5953C36.021 55.3269 32.2089 54.9514 28.7445 53.5164C25.28 52.0814 22.319 49.6513 20.2356 46.5334C18.1523 43.4155 17.0404 39.7499 17.0404 36C17.0404 32.2501 18.1523 28.5845 20.2356 25.4666C22.319 22.3487 25.28 19.9186 28.7445 18.4836C32.2089 17.0486 36.021 16.6731 39.6988 17.4047C43.3766 18.1362 46.7549 19.942 49.4065 22.5935L53.6777 18.3223Z"/>
</mask>
<path d="M53.6777 18.3223C50.1813 14.826 45.7268 12.445 40.8772 11.4804C36.0277 10.5157 31.0011 11.0108 26.4329 12.903C21.8648 14.7952 17.9603 17.9995 15.2133 22.1107C12.4662 26.222 11 31.0555 11 36C11 40.9445 12.4662 45.778 15.2133 49.8893C17.9603 54.0005 21.8648 57.2048 26.4329 59.097C31.0011 60.9892 36.0277 61.4843 40.8772 60.5196C45.7268 59.555 50.1813 57.174 53.6777 53.6777L49.4065 49.4065C46.7549 52.058 43.3766 53.8638 39.6988 54.5953C36.021 55.3269 32.2089 54.9514 28.7445 53.5164C25.28 52.0814 22.319 49.6513 20.2356 46.5334C18.1523 43.4155 17.0404 39.7499 17.0404 36C17.0404 32.2501 18.1523 28.5845 20.2356 25.4666C22.319 22.3487 25.28 19.9186 28.7445 18.4836C32.2089 17.0486 36.021 16.6731 39.6988 17.4047C43.3766 18.1362 46.7549 19.942 49.4065 22.5935L53.6777 18.3223Z" fill="#FECE00" stroke="black" stroke-width="2" mask="url(#path-1-inside-1_1_12)"/>
<rect x="28.5" y="33.5" width="25" height="6" rx="2.5" fill="#FECE00" stroke="black"/>
<path d="M39.5 47.2583L20 36L39.5 24.7417L39.5 47.2583Z" fill="#FECE00" stroke="black"/>
<rect x="39" y="34" width="1" height="5" fill="#FECE00"/>
</svg>
